<?xml version="1.0" encoding="UTF-8"?>
<!DOCTYPE svg PUBLIC "-//W3C//DTD SVG 1.1//EN" "http://www.w3.org/Graphics/SVG/1.1/DTD/svg11.dtd">
<svg version="1.1" xmlns="http://www.w3.org/2000/svg" xmlns:xlink="http://www.w3.org/1999/xlink" x="0" y="0" width="600" height="700" viewBox="0, 0, 600, 700">
  <g id="Background">
    <rect x="0" y="0" width="600" height="700" fill="#000000" fill-opacity="0"/>
  </g>
  <g id="Layer_1">
    <g>
      <path d="M45.5,46.5 L75.5,46.5 L75.5,76.5 L45.5,76.5 L45.5,46.5 z" fill="#8FC7ED"/>
      <path d="M45.5,46.5 L75.5,46.5 L75.5,76.5 L45.5,76.5 L45.5,46.5 z" fill-opacity="0" stroke="#294270" stroke-width="3"/>
    </g>
    <g>
      <path d="M45.5,76.5 L75.5,76.5 L75.5,106.5 L45.5,106.5 L45.5,76.5 z" fill="#8FC7ED"/>
      <path d="M45.5,76.5 L75.5,76.5 L75.5,106.5 L45.5,106.5 L45.5,76.5 z" fill-opacity="0" stroke="#294270" stroke-width="3"/>
    </g>
    <g>
      <path d="M75.5,76.5 L105.5,76.5 L105.5,106.5 L75.5,106.5 L75.5,76.5 z" fill="#8FC7ED"/>
      <path d="M75.5,76.5 L105.5,76.5 L105.5,106.5 L75.5,106.5 L75.5,76.5 z" fill-opacity="0" stroke="#294270" stroke-width="3"/>
    </g>
    <g>
      <path d="M75.5,46.5 L105.5,46.5 L105.5,76.5 L75.5,76.5 L75.5,46.5 z" fill="#8FC7ED"/>
      <path d="M75.5,46.5 L105.5,46.5 L105.5,76.5 L75.5,76.5 L75.5,46.5 z" fill-opacity="0" stroke="#294270" stroke-width="3"/>
    </g>
    <g>
      <path d="M165.5,46.5 L195.5,46.5 L195.5,76.5 L165.5,76.5 L165.5,46.5 z" fill="#8FC7ED"/>
      <path d="M165.5,46.5 L195.5,46.5 L195.5,76.5 L165.5,76.5 L165.5,46.5 z" fill-opacity="0" stroke="#294270" stroke-width="3"/>
    </g>
    <g>
      <path d="M165.5,76.5 L195.5,76.5 L195.5,106.5 L165.5,106.5 L165.5,76.5 z" fill="#8FC7ED"/>
      <path d="M165.5,76.5 L195.5,76.5 L195.5,106.5 L165.5,106.5 L165.5,76.5 z" fill-opacity="0" stroke="#294270" stroke-width="3"/>
    </g>
    <g>
      <path d="M195.5,76.5 L225.5,76.5 L225.5,106.5 L195.5,106.5 L195.5,76.5 z" fill="#8FC7ED"/>
      <path d="M195.5,76.5 L225.5,76.5 L225.5,106.5 L195.5,106.5 L195.5,76.5 z" fill-opacity="0" stroke="#294270" stroke-width="3"/>
    </g>
    <g>
      <path d="M225.5,76.5 L255.5,76.5 L255.5,106.5 L225.5,106.5 L225.5,76.5 z" fill="#8FC7ED"/>
      <path d="M225.5,76.5 L255.5,76.5 L255.5,106.5 L225.5,106.5 L225.5,76.5 z" fill-opacity="0" stroke="#294270" stroke-width="3"/>
    </g>
    <g>
      <path d="M375.5,46.5 L405.5,46.5 L405.5,76.5 L375.5,76.5 L375.5,46.5 z" fill="#8FC7ED"/>
      <path d="M375.5,46.5 L405.5,46.5 L405.5,76.5 L375.5,76.5 L375.5,46.5 z" fill-opacity="0" stroke="#294270" stroke-width="3"/>
    </g>
    <g>
      <path d="M315.5,76.5 L345.5,76.5 L345.5,106.5 L315.5,106.5 L315.5,76.5 z" fill="#8FC7ED"/>
      <path d="M315.5,76.5 L345.5,76.5 L345.5,106.5 L315.5,106.5 L315.5,76.5 z" fill-opacity="0" stroke="#294270" stroke-width="3"/>
    </g>
    <g>
      <path d="M345.5,76.5 L375.5,76.5 L375.5,106.5 L345.5,106.5 L345.5,76.5 z" fill="#8FC7ED"/>
      <path d="M345.5,76.5 L375.5,76.5 L375.5,106.5 L345.5,106.5 L345.5,76.5 z" fill-opacity="0" stroke="#294270" stroke-width="3"/>
    </g>
    <g>
      <path d="M375.5,76.5 L405.5,76.5 L405.5,106.5 L375.5,106.5 L375.5,76.5 z" fill="#8FC7ED"/>
      <path d="M375.5,76.5 L405.5,76.5 L405.5,106.5 L375.5,106.5 L375.5,76.5 z" fill-opacity="0" stroke="#294270" stroke-width="3"/>
    </g>
    <g>
      <path d="M525.5,76.5 L555.5,76.5 L555.5,106.5 L525.5,106.5 L525.5,76.5 z" fill="#8FC7ED"/>
      <path d="M525.5,76.5 L555.5,76.5 L555.5,106.5 L525.5,106.5 L525.5,76.5 z" fill-opacity="0" stroke="#294270" stroke-width="3"/>
    </g>
    <g>
      <path d="M465.5,76.5 L495.5,76.5 L495.5,106.5 L465.5,106.5 L465.5,76.5 z" fill="#8FC7ED"/>
      <path d="M465.5,76.5 L495.5,76.5 L495.5,106.5 L465.5,106.5 L465.5,76.5 z" fill-opacity="0" stroke="#294270" stroke-width="3"/>
    </g>
    <g>
      <path d="M495.5,76.5 L525.5,76.5 L525.5,106.5 L495.5,106.5 L495.5,76.5 z" fill="#8FC7ED"/>
      <path d="M495.5,76.5 L525.5,76.5 L525.5,106.5 L495.5,106.5 L495.5,76.5 z" fill-opacity="0" stroke="#294270" stroke-width="3"/>
    </g>
    <g>
      <path d="M495.5,46.5 L525.5,46.5 L525.5,76.5 L495.5,76.5 L495.5,46.5 z" fill="#8FC7ED"/>
      <path d="M495.5,46.5 L525.5,46.5 L525.5,76.5 L495.5,76.5 L495.5,46.5 z" fill-opacity="0" stroke="#294270" stroke-width="3"/>
    </g>
    <g>
      <path d="M180.5,166.5 L210.5,166.5 L210.5,196.5 L180.5,196.5 L180.5,166.5 z" fill="#8FC7ED"/>
      <path d="M180.5,166.5 L210.5,166.5 L210.5,196.5 L180.5,196.5 L180.5,166.5 z" fill-opacity="0" stroke="#294270" stroke-width="3"/>
    </g>
    <g>
      <path d="M90.5,166.5 L120.5,166.5 L120.5,196.5 L90.5,196.5 L90.5,166.5 z" fill="#8FC7ED"/>
      <path d="M90.5,166.5 L120.5,166.5 L120.5,196.5 L90.5,196.5 L90.5,166.5 z" fill-opacity="0" stroke="#294270" stroke-width="3"/>
    </g>
    <g>
      <path d="M120.5,166.5 L150.5,166.5 L150.5,196.5 L120.5,196.5 L120.5,166.5 z" fill="#8FC7ED"/>
      <path d="M120.5,166.5 L150.5,166.5 L150.5,196.5 L120.5,196.5 L120.5,166.5 z" fill-opacity="0" stroke="#294270" stroke-width="3"/>
    </g>
    <g>
      <path d="M150.5,166.5 L180.5,166.5 L180.5,196.5 L150.5,196.5 L150.5,166.5 z" fill="#8FC7ED"/>
      <path d="M150.5,166.5 L180.5,166.5 L180.5,196.5 L150.5,196.5 L150.5,166.5 z" fill-opacity="0" stroke="#294270" stroke-width="3"/>
    </g>
    <g>
      <path d="M330.5,136.5 L360.5,136.5 L360.5,166.5 L330.5,166.5 L330.5,136.5 z" fill="#8FC7ED"/>
      <path d="M330.5,136.5 L360.5,136.5 L360.5,166.5 L330.5,166.5 L330.5,136.5 z" fill-opacity="0" stroke="#294270" stroke-width="3"/>
    </g>
    <g>
      <path d="M270.5,166.5 L300.5,166.5 L300.5,196.5 L270.5,196.5 L270.5,166.5 z" fill="#8FC7ED"/>
      <path d="M270.5,166.5 L300.5,166.5 L300.5,196.5 L270.5,196.5 L270.5,166.5 z" fill-opacity="0" stroke="#294270" stroke-width="3"/>
    </g>
    <g>
      <path d="M300.5,166.5 L330.5,166.5 L330.5,196.5 L300.5,196.5 L300.5,166.5 z" fill="#8FC7ED"/>
      <path d="M300.5,166.5 L330.5,166.5 L330.5,196.5 L300.5,196.5 L300.5,166.5 z" fill-opacity="0" stroke="#294270" stroke-width="3"/>
    </g>
    <g>
      <path d="M300.5,136.5 L330.5,136.5 L330.5,166.5 L300.5,166.5 L300.5,136.5 z" fill="#8FC7ED"/>
      <path d="M300.5,136.5 L330.5,136.5 L330.5,166.5 L300.5,166.5 L300.5,136.5 z" fill-opacity="0" stroke="#294270" stroke-width="3"/>
    </g>
    <g>
      <path d="M420.5,136.5 L450.5,136.5 L450.5,166.5 L420.5,166.5 L420.5,136.5 z" fill="#8FC7ED"/>
      <path d="M420.5,136.5 L450.5,136.5 L450.5,166.5 L420.5,166.5 L420.5,136.5 z" fill-opacity="0" stroke="#294270" stroke-width="3"/>
    </g>
    <g>
      <path d="M480.5,166.5 L510.5,166.5 L510.5,196.5 L480.5,196.5 L480.5,166.5 z" fill="#8FC7ED"/>
      <path d="M480.5,166.5 L510.5,166.5 L510.5,196.5 L480.5,196.5 L480.5,166.5 z" fill-opacity="0" stroke="#294270" stroke-width="3"/>
    </g>
    <g>
      <path d="M450.5,166.5 L480.5,166.5 L480.5,196.5 L450.5,196.5 L450.5,166.5 z" fill="#8FC7ED"/>
      <path d="M450.5,166.5 L480.5,166.5 L480.5,196.5 L450.5,196.5 L450.5,166.5 z" fill-opacity="0" stroke="#294270" stroke-width="3"/>
    </g>
    <g>
      <path d="M450.5,136.5 L480.5,136.5 L480.5,166.5 L450.5,166.5 L450.5,136.5 z" fill="#8FC7ED"/>
      <path d="M450.5,136.5 L480.5,136.5 L480.5,166.5 L450.5,166.5 L450.5,136.5 z" fill-opacity="0" stroke="#294270" stroke-width="3"/>
    </g>
    <text transform="matrix(1, 0, 0, 1, 302.805, 38)">
      <tspan x="-32.805" y="11" font-family="Roboto-Bold" font-size="30" fill="#294270">LVL0</tspan>
    </text>
    <text transform="matrix(1, 0, 0, 1, 302.805, 242)">
      <tspan x="-32.805" y="11" font-family="Roboto-Bold" font-size="30" fill="#294270">LVL1</tspan>
    </text>
    <g>
      <path d="M120.5,262.5 L150.5,262.5 L150.5,292.5 L120.5,292.5 L120.5,262.5 z" fill="#8FC7ED"/>
      <path d="M120.5,262.5 L150.5,262.5 L150.5,292.5 L120.5,292.5 L120.5,262.5 z" fill-opacity="0" stroke="#294270" stroke-width="3"/>
    </g>
    <g>
      <path d="M120.5,292.5 L150.5,292.5 L150.5,322.5 L120.5,322.5 L120.5,292.5 z" fill="#8FC7ED"/>
      <path d="M120.5,292.5 L150.5,292.5 L150.5,322.5 L120.5,322.5 L120.5,292.5 z" fill-opacity="0" stroke="#294270" stroke-width="3"/>
    </g>
    <g>
      <path d="M150.5,292.5 L180.5,292.5 L180.5,322.5 L150.5,322.5 L150.5,292.5 z" fill="#8FC7ED"/>
      <path d="M150.5,292.5 L180.5,292.5 L180.5,322.5 L150.5,322.5 L150.5,292.5 z" fill-opacity="0" stroke="#294270" stroke-width="3"/>
    </g>
    <g>
      <path d="M180.5,292.5 L210.5,292.5 L210.5,322.5 L180.5,322.5 L180.5,292.5 z" fill="#8FC7ED"/>
      <path d="M180.5,292.5 L210.5,292.5 L210.5,322.5 L180.5,322.5 L180.5,292.5 z" fill-opacity="0" stroke="#294270" stroke-width="3"/>
    </g>
    <g>
      <path d="M180.5,262.5 L210.5,262.5 L210.5,292.5 L180.5,292.5 L180.5,262.5 z" fill="#8FC7ED"/>
      <path d="M180.5,262.5 L210.5,262.5 L210.5,292.5 L180.5,292.5 L180.5,262.5 z" fill-opacity="0" stroke="#294270" stroke-width="3"/>
    </g>
    <g>
      <path d="M270.5,262.5 L300.5,262.5 L300.5,292.5 L270.5,292.5 L270.5,262.5 z" fill="#8FC7ED"/>
      <path d="M270.5,262.5 L300.5,262.5 L300.5,292.5 L270.5,292.5 L270.5,262.5 z" fill-opacity="0" stroke="#294270" stroke-width="3"/>
    </g>
    <g>
      <path d="M270.5,292.5 L300.5,292.5 L300.5,322.5 L270.5,322.5 L270.5,292.5 z" fill="#8FC7ED"/>
      <path d="M270.5,292.5 L300.5,292.5 L300.5,322.5 L270.5,322.5 L270.5,292.5 z" fill-opacity="0" stroke="#294270" stroke-width="3"/>
    </g>
    <g>
      <path d="M300.5,292.5 L330.5,292.5 L330.5,322.5 L300.5,322.5 L300.5,292.5 z" fill="#8FC7ED"/>
      <path d="M300.5,292.5 L330.5,292.5 L330.5,322.5 L300.5,322.5 L300.5,292.5 z" fill-opacity="0" stroke="#294270" stroke-width="3"/>
    </g>
    <g>
      <path d="M330.5,292.5 L360.5,292.5 L360.5,322.5 L330.5,322.5 L330.5,292.5 z" fill="#8FC7ED"/>
      <path d="M330.5,292.5 L360.5,292.5 L360.5,322.5 L330.5,322.5 L330.5,292.5 z" fill-opacity="0" stroke="#294270" stroke-width="3"/>
    </g>
    <g>
      <path d="M300.5,262.5 L330.5,262.5 L330.5,292.5 L300.5,292.5 L300.5,262.5 z" fill="#8FC7ED"/>
      <path d="M300.5,262.5 L330.5,262.5 L330.5,292.5 L300.5,292.5 L300.5,262.5 z" fill-opacity="0" stroke="#294270" stroke-width="3"/>
    </g>
    <g>
      <path d="M420.5,262.5 L450.5,262.5 L450.5,292.5 L420.5,292.5 L420.5,262.5 z" fill="#8FC7ED"/>
      <path d="M420.5,262.5 L450.5,262.5 L450.5,292.5 L420.5,292.5 L420.5,262.5 z" fill-opacity="0" stroke="#294270" stroke-width="3"/>
    </g>
    <g>
      <path d="M420.5,292.5 L450.5,292.5 L450.5,322.5 L420.5,322.5 L420.5,292.5 z" fill="#8FC7ED"/>
      <path d="M420.5,292.5 L450.5,292.5 L450.5,322.5 L420.5,322.5 L420.5,292.5 z" fill-opacity="0" stroke="#294270" stroke-width="3"/>
    </g>
    <g>
      <path d="M450.5,292.5 L480.5,292.5 L480.5,322.5 L450.5,322.5 L450.5,292.5 z" fill="#8FC7ED"/>
      <path d="M450.5,292.5 L480.5,292.5 L480.5,322.5 L450.5,322.5 L450.5,292.5 z" fill-opacity="0" stroke="#294270" stroke-width="3"/>
    </g>
    <g>
      <path d="M480.5,262.5 L510.5,262.5 L510.5,292.5 L480.5,292.5 L480.5,262.5 z" fill="#8FC7ED"/>
      <path d="M480.5,262.5 L510.5,262.5 L510.5,292.5 L480.5,292.5 L480.5,262.5 z" fill-opacity="0" stroke="#294270" stroke-width="3"/>
    </g>
    <g>
      <path d="M450.5,262.5 L480.5,262.5 L480.5,292.5 L450.5,292.5 L450.5,262.5 z" fill="#8FC7ED"/>
      <path d="M450.5,262.5 L480.5,262.5 L480.5,292.5 L450.5,292.5 L450.5,262.5 z" fill-opacity="0" stroke="#294270" stroke-width="3"/>
    </g>
    <path d="M30.5,12.5 L570.5,12.5 L570.5,210.5 L30.5,210.5 L30.5,12.5 z" fill-opacity="0" stroke="#65A1CF" stroke-width="3" stroke-dasharray="9,6"/>
    <path d="M30.5,222.5 L570.5,222.5 L570.5,336.5 L30.5,336.5 L30.5,222.5 z" fill-opacity="0" stroke="#65A1CF" stroke-width="3" stroke-dasharray="9,6"/>
    <text transform="matrix(1, 0, 0, 1, 182.805, 375)">
      <tspan x="-32.805" y="11" font-family="Roboto-Bold" font-size="30" fill="#294270">LVL2</tspan>
    </text>
    <g>
      <path d="M45.5,360.5 L75.5,360.5 L75.5,390.5 L45.5,390.5 L45.5,360.5 z" fill="#8FC7ED"/>
      <path d="M45.5,360.5 L75.5,360.5 L75.5,390.5 L45.5,390.5 L45.5,360.5 z" fill-opacity="0" stroke="#294270" stroke-width="3"/>
    </g>
    <g>
      <path d="M45.5,390.5 L75.5,390.5 L75.5,420.5 L45.5,420.5 L45.5,390.5 z" fill="#8FC7ED"/>
      <path d="M45.5,390.5 L75.5,390.5 L75.5,420.5 L45.5,420.5 L45.5,390.5 z" fill-opacity="0" stroke="#294270" stroke-width="3"/>
    </g>
    <g>
      <path d="M75.5,390.5 L105.5,390.5 L105.5,420.5 L75.5,420.5 L75.5,390.5 z" fill="#8FC7ED"/>
      <path d="M75.5,390.5 L105.5,390.5 L105.5,420.5 L75.5,420.5 L75.5,390.5 z" fill-opacity="0" stroke="#294270" stroke-width="3"/>
    </g>
    <g>
      <path d="M105.5,390.5 L135.5,390.5 L135.5,420.5 L105.5,420.5 L105.5,390.5 z" fill="#8FC7ED"/>
      <path d="M105.5,390.5 L135.5,390.5 L135.5,420.5 L105.5,420.5 L105.5,390.5 z" fill-opacity="0" stroke="#294270" stroke-width="3"/>
    </g>
    <g>
      <path d="M135.5,390.5 L165.5,390.5 L165.5,420.5 L135.5,420.5 L135.5,390.5 z" fill="#8FC7ED"/>
      <path d="M135.5,390.5 L165.5,390.5 L165.5,420.5 L135.5,420.5 L135.5,390.5 z" fill-opacity="0" stroke="#294270" stroke-width="3"/>
    </g>
    <path d="M30.5,348.5 L330.5,348.5 L330.5,510.5 L30.5,510.5 L30.5,348.5 z" fill-opacity="0" stroke="#65A1CF" stroke-width="3" stroke-dasharray="9,6"/>
    <g>
      <path d="M285.5,360.5 L315.5,360.5 L315.5,390.5 L285.5,390.5 L285.5,360.5 z" fill="#8FC7ED"/>
      <path d="M285.5,360.5 L315.5,360.5 L315.5,390.5 L285.5,390.5 L285.5,360.5 z" fill-opacity="0" stroke="#294270" stroke-width="3"/>
    </g>
    <g>
      <path d="M195.5,390.5 L225.5,390.5 L225.5,420.5 L195.5,420.5 L195.5,390.5 z" fill="#8FC7ED"/>
      <path d="M195.5,390.5 L225.5,390.5 L225.5,420.5 L195.5,420.5 L195.5,390.5 z" fill-opacity="0" stroke="#294270" stroke-width="3"/>
    </g>
    <g>
      <path d="M225.5,390.5 L255.5,390.5 L255.5,420.5 L225.5,420.5 L225.5,390.5 z" fill="#8FC7ED"/>
      <path d="M225.5,390.5 L255.5,390.5 L255.5,420.5 L225.5,420.5 L225.5,390.5 z" fill-opacity="0" stroke="#294270" stroke-width="3"/>
    </g>
    <g>
      <path d="M255.5,390.5 L285.5,390.5 L285.5,420.5 L255.5,420.5 L255.5,390.5 z" fill="#8FC7ED"/>
      <path d="M255.5,390.5 L285.5,390.5 L285.5,420.5 L255.5,420.5 L255.5,390.5 z" fill-opacity="0" stroke="#294270" stroke-width="3"/>
    </g>
    <g>
      <path d="M285.5,390.5 L315.5,390.5 L315.5,420.5 L285.5,420.5 L285.5,390.5 z" fill="#8FC7ED"/>
      <path d="M285.5,390.5 L315.5,390.5 L315.5,420.5 L285.5,420.5 L285.5,390.5 z" fill-opacity="0" stroke="#294270" stroke-width="3"/>
    </g>
    <g>
      <path d="M75.5,438.5 L105.5,438.5 L105.5,468.5 L75.5,468.5 L75.5,438.5 z" fill="#8FC7ED"/>
      <path d="M75.5,438.5 L105.5,438.5 L105.5,468.5 L75.5,468.5 L75.5,438.5 z" fill-opacity="0" stroke="#294270" stroke-width="3"/>
    </g>
    <g>
      <path d="M45.5,468.5 L75.5,468.5 L75.5,498.5 L45.5,498.5 L45.5,468.5 z" fill="#8FC7ED"/>
      <path d="M45.5,468.5 L75.5,468.5 L75.5,498.5 L45.5,498.5 L45.5,468.5 z" fill-opacity="0" stroke="#294270" stroke-width="3"/>
    </g>
    <g>
      <path d="M75.5,468.5 L105.5,468.5 L105.5,498.5 L75.5,498.5 L75.5,468.5 z" fill="#8FC7ED"/>
      <path d="M75.5,468.5 L105.5,468.5 L105.5,498.5 L75.5,498.5 L75.5,468.5 z" fill-opacity="0" stroke="#294270" stroke-width="3"/>
    </g>
    <g>
      <path d="M105.5,468.5 L135.5,468.5 L135.5,498.5 L105.5,498.5 L105.5,468.5 z" fill="#8FC7ED"/>
      <path d="M105.5,468.5 L135.5,468.5 L135.5,498.5 L105.5,498.5 L105.5,468.5 z" fill-opacity="0" stroke="#294270" stroke-width="3"/>
    </g>
    <g>
      <path d="M135.5,468.5 L165.5,468.5 L165.5,498.5 L135.5,498.5 L135.5,468.5 z" fill="#8FC7ED"/>
      <path d="M135.5,468.5 L165.5,468.5 L165.5,498.5 L135.5,498.5 L135.5,468.5 z" fill-opacity="0" stroke="#294270" stroke-width="3"/>
    </g>
    <g>
      <path d="M255.5,438.5 L285.5,438.5 L285.5,468.5 L255.5,468.5 L255.5,438.5 z" fill="#8FC7ED"/>
      <path d="M255.5,438.5 L285.5,438.5 L285.5,468.5 L255.5,468.5 L255.5,438.5 z" fill-opacity="0" stroke="#294270" stroke-width="3"/>
    </g>
    <g>
      <path d="M195.5,468.5 L225.5,468.5 L225.5,498.5 L195.5,498.5 L195.5,468.5 z" fill="#8FC7ED"/>
      <path d="M195.5,468.5 L225.5,468.5 L225.5,498.5 L195.5,498.5 L195.5,468.5 z" fill-opacity="0" stroke="#294270" stroke-width="3"/>
    </g>
    <g>
      <path d="M225.5,468.5 L255.5,468.5 L255.5,498.5 L225.5,498.5 L225.5,468.5 z" fill="#8FC7ED"/>
      <path d="M225.5,468.5 L255.5,468.5 L255.5,498.5 L225.5,498.5 L225.5,468.5 z" fill-opacity="0" stroke="#294270" stroke-width="3"/>
    </g>
    <g>
      <path d="M255.5,468.5 L285.5,468.5 L285.5,498.5 L255.5,498.5 L255.5,468.5 z" fill="#8FC7ED"/>
      <path d="M255.5,468.5 L285.5,468.5 L285.5,498.5 L255.5,498.5 L255.5,468.5 z" fill-opacity="0" stroke="#294270" stroke-width="3"/>
    </g>
    <g>
      <path d="M285.5,468.5 L315.5,468.5 L315.5,498.5 L285.5,498.5 L285.5,468.5 z" fill="#8FC7ED"/>
      <path d="M285.5,468.5 L315.5,468.5 L315.5,498.5 L285.5,498.5 L285.5,468.5 z" fill-opacity="0" stroke="#294270" stroke-width="3"/>
    </g>
    <path d="M345.5,348.5 L570.5,348.5 L570.5,510.5 L345.5,510.5 L345.5,348.5 z" fill-opacity="0" stroke="#65A1CF" stroke-width="3" stroke-dasharray="9,6"/>
    <text transform="matrix(1, 0, 0, 1, 457.5, 375)">
      <tspan x="-32.805" y="11" font-family="Roboto-Bold" font-size="30" fill="#294270">LVL3</tspan>
    </text>
    <g>
      <path d="M390.5,402.5 L420.5,402.5 L420.5,432.5 L390.5,432.5 L390.5,402.5 z" fill="#8FC7ED"/>
      <path d="M390.5,402.5 L420.5,402.5 L420.5,432.5 L390.5,432.5 L390.5,402.5 z" fill-opacity="0" stroke="#294270" stroke-width="3"/>
    </g>
    <g>
      <path d="M360.5,432.5 L390.5,432.5 L390.5,462.5 L360.5,462.5 L360.5,432.5 z" fill="#8FC7ED"/>
      <path d="M360.5,432.5 L390.5,432.5 L390.5,462.5 L360.5,462.5 L360.5,432.5 z" fill-opacity="0" stroke="#294270" stroke-width="3"/>
    </g>
    <g>
      <path d="M390.5,432.5 L420.5,432.5 L420.5,462.5 L390.5,462.5 L390.5,432.5 z" fill="#8FC7ED"/>
      <path d="M390.5,432.5 L420.5,432.5 L420.5,462.5 L390.5,462.5 L390.5,432.5 z" fill-opacity="0" stroke="#294270" stroke-width="3"/>
    </g>
    <g>
      <path d="M420.5,432.5 L450.5,432.5 L450.5,462.5 L420.5,462.5 L420.5,432.5 z" fill="#8FC7ED"/>
      <path d="M420.5,432.5 L450.5,432.5 L450.5,462.5 L420.5,462.5 L420.5,432.5 z" fill-opacity="0" stroke="#294270" stroke-width="3"/>
    </g>
    <g>
      <path d="M390.5,462.5 L420.5,462.5 L420.5,492.5 L390.5,492.5 L390.5,462.5 z" fill="#8FC7ED"/>
      <path d="M390.5,462.5 L420.5,462.5 L420.5,492.5 L390.5,492.5 L390.5,462.5 z" fill-opacity="0" stroke="#294270" stroke-width="3"/>
    </g>
    <g>
      <path d="M495.5,402.5 L525.5,402.5 L525.5,432.5 L495.5,432.5 L495.5,402.5 z" fill="#8FC7ED"/>
      <path d="M495.5,402.5 L525.5,402.5 L525.5,432.5 L495.5,432.5 L495.5,402.5 z" fill-opacity="0" stroke="#294270" stroke-width="3"/>
    </g>
    <g>
      <path d="M495.5,432.5 L525.5,432.5 L525.5,462.5 L495.5,462.5 L495.5,432.5 z" fill="#8FC7ED"/>
      <path d="M495.5,432.5 L525.5,432.5 L525.5,462.5 L495.5,462.5 L495.5,432.5 z" fill-opacity="0" stroke="#294270" stroke-width="3"/>
    </g>
    <g>
      <path d="M465.5,462.5 L495.5,462.5 L495.5,492.5 L465.5,492.5 L465.5,462.5 z" fill="#8FC7ED"/>
      <path d="M465.5,462.5 L495.5,462.5 L495.5,492.5 L465.5,492.5 L465.5,462.5 z" fill-opacity="0" stroke="#294270" stroke-width="3"/>
    </g>
    <g>
      <path d="M495.5,462.5 L525.5,462.5 L525.5,492.5 L495.5,492.5 L495.5,462.5 z" fill="#8FC7ED"/>
      <path d="M495.5,462.5 L525.5,462.5 L525.5,492.5 L495.5,492.5 L495.5,462.5 z" fill-opacity="0" stroke="#294270" stroke-width="3"/>
    </g>
    <g>
      <path d="M525.5,402.5 L555.5,402.5 L555.5,432.5 L525.5,432.5 L525.5,402.5 z" fill="#8FC7ED"/>
      <path d="M525.5,402.5 L555.5,402.5 L555.5,432.5 L525.5,432.5 L525.5,402.5 z" fill-opacity="0" stroke="#294270" stroke-width="3"/>
    </g>
    <text transform="matrix(1, 0, 0, 1, 182.805, 549)">
      <tspan x="-32.805" y="11" font-family="Roboto-Bold" font-size="30" fill="#294270">LVL4</tspan>
    </text>
    <g>
      <path d="M45.5,576.5 L75.5,576.5 L75.5,606.5 L45.5,606.5 L45.5,576.5 z" fill="#8FC7ED"/>
      <path d="M45.5,576.5 L75.5,576.5 L75.5,606.5 L45.5,606.5 L45.5,576.5 z" fill-opacity="0" stroke="#294270" stroke-width="3"/>
    </g>
    <g>
      <path d="M45.5,606.5 L75.5,606.5 L75.5,636.5 L45.5,636.5 L45.5,606.5 z" fill="#8FC7ED"/>
      <path d="M45.5,606.5 L75.5,606.5 L75.5,636.5 L45.5,636.5 L45.5,606.5 z" fill-opacity="0" stroke="#294270" stroke-width="3"/>
    </g>
    <g>
      <path d="M45.5,636.5 L75.5,636.5 L75.5,666.5 L45.5,666.5 L45.5,636.5 z" fill="#8FC7ED"/>
      <path d="M45.5,636.5 L75.5,636.5 L75.5,666.5 L45.5,666.5 L45.5,636.5 z" fill-opacity="0" stroke="#294270" stroke-width="3"/>
    </g>
    <g>
      <path d="M75.5,636.5 L105.5,636.5 L105.5,666.5 L75.5,666.5 L75.5,636.5 z" fill="#8FC7ED"/>
      <path d="M75.5,636.5 L105.5,636.5 L105.5,666.5 L75.5,666.5 L75.5,636.5 z" fill-opacity="0" stroke="#294270" stroke-width="3"/>
    </g>
    <g>
      <path d="M105.5,636.5 L135.5,636.5 L135.5,666.5 L105.5,666.5 L105.5,636.5 z" fill="#8FC7ED"/>
      <path d="M105.5,636.5 L135.5,636.5 L135.5,666.5 L105.5,666.5 L105.5,636.5 z" fill-opacity="0" stroke="#294270" stroke-width="3"/>
    </g>
    <g>
      <path d="M105.5,606.5 L135.5,606.5 L135.5,636.5 L105.5,636.5 L105.5,606.5 z" fill="#8FC7ED"/>
      <path d="M105.5,606.5 L135.5,606.5 L135.5,636.5 L105.5,636.5 L105.5,606.5 z" fill-opacity="0" stroke="#294270" stroke-width="3"/>
    </g>
    <g>
      <path d="M105.5,576.5 L135.5,576.5 L135.5,606.5 L105.5,606.5 L105.5,576.5 z" fill="#8FC7ED"/>
      <path d="M105.5,576.5 L135.5,576.5 L135.5,606.5 L105.5,606.5 L105.5,576.5 z" fill-opacity="0" stroke="#294270" stroke-width="3"/>
    </g>
    <g>
      <path d="M285.5,636.5 L315.5,636.5 L315.5,666.5 L285.5,666.5 L285.5,636.5 z" fill="#8FC7ED"/>
      <path d="M285.5,636.5 L315.5,636.5 L315.5,666.5 L285.5,666.5 L285.5,636.5 z" fill-opacity="0" stroke="#294270" stroke-width="3"/>
    </g>
    <g>
      <path d="M285.5,606.5 L315.5,606.5 L315.5,636.5 L285.5,636.5 L285.5,606.5 z" fill="#8FC7ED"/>
      <path d="M285.5,606.5 L315.5,606.5 L315.5,636.5 L285.5,636.5 L285.5,606.5 z" fill-opacity="0" stroke="#294270" stroke-width="3"/>
    </g>
    <g>
      <path d="M255.5,576.5 L285.5,576.5 L285.5,606.5 L255.5,606.5 L255.5,576.5 z" fill="#8FC7ED"/>
      <path d="M255.5,576.5 L285.5,576.5 L285.5,606.5 L255.5,606.5 L255.5,576.5 z" fill-opacity="0" stroke="#294270" stroke-width="3"/>
    </g>
    <g>
      <path d="M225.5,606.5 L255.5,606.5 L255.5,636.5 L225.5,636.5 L225.5,606.5 z" fill="#8FC7ED"/>
      <path d="M225.5,606.5 L255.5,606.5 L255.5,636.5 L225.5,636.5 L225.5,606.5 z" fill-opacity="0" stroke="#294270" stroke-width="3"/>
    </g>
    <g>
      <path d="M225.5,636.5 L255.5,636.5 L255.5,666.5 L225.5,666.5 L225.5,636.5 z" fill="#8FC7ED"/>
      <path d="M225.5,636.5 L255.5,636.5 L255.5,666.5 L225.5,666.5 L225.5,636.5 z" fill-opacity="0" stroke="#294270" stroke-width="3"/>
    </g>
    <g>
      <path d="M255.5,606.5 L285.5,606.5 L285.5,636.5 L255.5,636.5 L255.5,606.5 z" fill="#8FC7ED"/>
      <path d="M255.5,606.5 L285.5,606.5 L285.5,636.5 L255.5,636.5 L255.5,606.5 z" fill-opacity="0" stroke="#294270" stroke-width="3"/>
    </g>
    <path d="M30.5,522.5 L330.5,522.5 L330.5,684.5 L30.5,684.5 L30.5,522.5 z" fill-opacity="0" stroke="#65A1CF" stroke-width="3" stroke-dasharray="9,6"/>
    <path d="M345.5,522.5 L570.5,522.5 L570.5,684.5 L345.5,684.5 L345.5,522.5 z" fill-opacity="0" stroke="#65A1CF" stroke-width="3" stroke-dasharray="9,6"/>
    <text transform="matrix(1, 0, 0, 1, 457.5, 549)">
      <tspan x="-32.805" y="11" font-family="Roboto-Bold" font-size="30" fill="#294270">LVL5</tspan>
    </text>
    <g>
      <path d="M390.5,576.5 L420.5,576.5 L420.5,606.5 L390.5,606.5 L390.5,576.5 z" fill="#8FC7ED"/>
      <path d="M390.5,576.5 L420.5,576.5 L420.5,606.5 L390.5,606.5 L390.5,576.5 z" fill-opacity="0" stroke="#294270" stroke-width="3"/>
    </g>
    <g>
      <path d="M360.5,606.5 L390.5,606.5 L390.5,636.5 L360.5,636.5 L360.5,606.5 z" fill="#8FC7ED"/>
      <path d="M360.5,606.5 L390.5,606.5 L390.5,636.5 L360.5,636.5 L360.5,606.5 z" fill-opacity="0" stroke="#294270" stroke-width="3"/>
    </g>
    <g>
      <path d="M360.5,576.5 L390.5,576.5 L390.5,606.5 L360.5,606.5 L360.5,576.5 z" fill="#8FC7ED"/>
      <path d="M360.5,576.5 L390.5,576.5 L390.5,606.5 L360.5,606.5 L360.5,576.5 z" fill-opacity="0" stroke="#294270" stroke-width="3"/>
    </g>
    <g>
      <path d="M420.5,606.5 L450.5,606.5 L450.5,636.5 L420.5,636.5 L420.5,606.5 z" fill="#8FC7ED"/>
      <path d="M420.5,606.5 L450.5,606.5 L450.5,636.5 L420.5,636.5 L420.5,606.5 z" fill-opacity="0" stroke="#294270" stroke-width="3"/>
    </g>
    <g>
      <path d="M390.5,636.5 L420.5,636.5 L420.5,666.5 L390.5,666.5 L390.5,636.5 z" fill="#8FC7ED"/>
      <path d="M390.5,636.5 L420.5,636.5 L420.5,666.5 L390.5,666.5 L390.5,636.5 z" fill-opacity="0" stroke="#294270" stroke-width="3"/>
    </g>
    <g>
      <path d="M495.5,576.5 L525.5,576.5 L525.5,606.5 L495.5,606.5 L495.5,576.5 z" fill="#8FC7ED"/>
      <path d="M495.5,576.5 L525.5,576.5 L525.5,606.5 L495.5,606.5 L495.5,576.5 z" fill-opacity="0" stroke="#294270" stroke-width="3"/>
    </g>
    <g>
      <path d="M465.5,576.5 L495.5,576.5 L495.5,606.5 L465.5,606.5 L465.5,576.5 z" fill="#8FC7ED"/>
      <path d="M465.5,576.5 L495.5,576.5 L495.5,606.5 L465.5,606.5 L465.5,576.5 z" fill-opacity="0" stroke="#294270" stroke-width="3"/>
    </g>
    <g>
      <path d="M465.5,636.5 L495.5,636.5 L495.5,666.5 L465.5,666.5 L465.5,636.5 z" fill="#8FC7ED"/>
      <path d="M465.5,636.5 L495.5,636.5 L495.5,666.5 L465.5,666.5 L465.5,636.5 z" fill-opacity="0" stroke="#294270" stroke-width="3"/>
    </g>
    <g>
      <path d="M495.5,636.5 L525.5,636.5 L525.5,666.5 L495.5,666.5 L495.5,636.5 z" fill="#8FC7ED"/>
      <path d="M495.5,636.5 L525.5,636.5 L525.5,666.5 L495.5,666.5 L495.5,636.5 z" fill-opacity="0" stroke="#294270" stroke-width="3"/>
    </g>
    <g>
      <path d="M525.5,576.5 L555.5,576.5 L555.5,606.5 L525.5,606.5 L525.5,576.5 z" fill="#8FC7ED"/>
      <path d="M525.5,576.5 L555.5,576.5 L555.5,606.5 L525.5,606.5 L525.5,576.5 z" fill-opacity="0" stroke="#294270" stroke-width="3"/>
    </g>
    <g>
      <path d="M360.5,636.5 L390.5,636.5 L390.5,666.5 L360.5,666.5 L360.5,636.5 z" fill="#8FC7ED"/>
      <path d="M360.5,636.5 L390.5,636.5 L390.5,666.5 L360.5,666.5 L360.5,636.5 z" fill-opacity="0" stroke="#294270" stroke-width="3"/>
    </g>
    <g>
      <path d="M420.5,576.5 L450.5,576.5 L450.5,606.5 L420.5,606.5 L420.5,576.5 z" fill="#8FC7ED"/>
      <path d="M420.5,576.5 L450.5,576.5 L450.5,606.5 L420.5,606.5 L420.5,576.5 z" fill-opacity="0" stroke="#294270" stroke-width="3"/>
    </g>
    <g>
      <path d="M420.5,636.5 L450.5,636.5 L450.5,666.5 L420.5,666.5 L420.5,636.5 z" fill="#8FC7ED"/>
      <path d="M420.5,636.5 L450.5,636.5 L450.5,666.5 L420.5,666.5 L420.5,636.5 z" fill-opacity="0" stroke="#294270" stroke-width="3"/>
    </g>
    <g>
      <path d="M525.5,636.5 L555.5,636.5 L555.5,666.5 L525.5,666.5 L525.5,636.5 z" fill="#8FC7ED"/>
      <path d="M525.5,636.5 L555.5,636.5 L555.5,666.5 L525.5,666.5 L525.5,636.5 z" fill-opacity="0" stroke="#294270" stroke-width="3"/>
    </g>
    <g>
      <path d="M495.5,606.5 L525.5,606.5 L525.5,636.5 L495.5,636.5 L495.5,606.5 z" fill="#8FC7ED"/>
      <path d="M495.5,606.5 L525.5,606.5 L525.5,636.5 L495.5,636.5 L495.5,606.5 z" fill-opacity="0" stroke="#294270" stroke-width="3"/>
    </g>
  </g>
</svg>
